<svg width="219" height="218" fill="none" xmlns="http://www.w3.org/2000/svg"><g filter="url(#a)" shape-rendering="crispEdges"><rect x="5" y="1" width="209" height="208" rx="26" fill="#E1CC89"/><rect x="5" y="1" width="209" height="208" rx="26" stroke="#787880" stroke-opacity=".2" stroke-width="1.778"/></g><g filter="url(#b)"><path d="M53.06 90.704c-3.2 0-5.845-.49-7.936-1.472-2.048-.981-3.584-2.453-4.608-4.416-1.024-2.005-1.536-4.501-1.536-7.488V66.896h-2.176c-1.365 0-2.432-.363-3.2-1.088-.725-.725-1.088-1.77-1.088-3.136 0-1.365.363-2.39 1.088-3.072.768-.725 1.835-1.088 3.2-1.088h2.176v-3.968c0-1.877.49-3.307 1.472-4.288.982-.981 2.39-1.472 4.224-1.472 1.835 0 3.243.49 4.224 1.472.982.981 1.472 2.41 1.472 4.288v3.968h5.248c1.408 0 2.475.363 3.2 1.088.768.683 1.152 1.707 1.152 3.072s-.384 2.41-1.152 3.136c-.725.725-1.792 1.088-3.2 1.088h-5.248v10.048c0 1.579.363 2.752 1.088 3.52.768.725 1.963 1.088 3.584 1.088a7.66 7.66 0 0 0 1.728-.192 6.866 6.866 0 0 1 1.536-.192c.683-.043 1.238.17 1.664.64.427.427.64 1.43.64 3.008 0 1.28-.192 2.368-.576 3.264-.384.853-1.066 1.472-2.048 1.856-.597.213-1.408.384-2.432.512-1.024.17-1.856.256-2.496.256Zm31.578 0c-3.84 0-7.168-.661-9.984-1.984-2.774-1.365-4.907-3.285-6.4-5.76-1.494-2.475-2.24-5.397-2.24-8.768 0-3.243.704-6.08 2.112-8.512 1.45-2.475 3.413-4.395 5.888-5.76 2.517-1.408 5.376-2.112 8.576-2.112 2.346 0 4.48.384 6.4 1.152 1.92.725 3.562 1.813 4.928 3.264 1.365 1.408 2.39 3.115 3.072 5.12.725 2.005 1.088 4.245 1.088 6.72 0 .853-.235 1.493-.704 1.92-.47.384-1.216.576-2.24.576H75.55v-5.376h14.208l-1.024.832c0-1.579-.214-2.859-.64-3.84-.427-.981-1.067-1.728-1.92-2.24-.81-.512-1.835-.768-3.072-.768-1.323 0-2.475.32-3.456.96-.939.597-1.664 1.493-2.176 2.688-.512 1.195-.768 2.688-.768 4.48v.576c0 3.03.661 5.205 1.984 6.528 1.365 1.28 3.456 1.92 6.272 1.92.938 0 2.005-.107 3.2-.32a22.465 22.465 0 0 0 3.52-1.024c1.11-.427 2.07-.49 2.88-.192.81.256 1.43.725 1.856 1.408.47.64.725 1.387.768 2.24.042.81-.15 1.621-.576 2.432-.427.768-1.13 1.365-2.112 1.792a21.766 21.766 0 0 1-4.8 1.536c-1.664.341-3.35.512-5.056.512Zm34.892 0c-1.878 0-3.798-.15-5.76-.448-1.92-.256-3.67-.747-5.248-1.472-1.067-.427-1.835-1.003-2.304-1.728a4.47 4.47 0 0 1-.64-2.304 4.24 4.24 0 0 1 .704-2.176c.469-.683 1.066-1.152 1.792-1.408.768-.299 1.621-.277 2.56.064 1.792.64 3.392 1.11 4.8 1.408 1.45.256 2.837.384 4.16.384 1.578 0 2.709-.213 3.392-.64.682-.47 1.024-1.067 1.024-1.792 0-.64-.235-1.13-.704-1.472-.427-.341-1.046-.576-1.856-.704l-7.104-1.152c-2.646-.47-4.694-1.43-6.144-2.88-1.451-1.493-2.176-3.435-2.176-5.824 0-2.219.618-4.117 1.856-5.696 1.28-1.621 3.008-2.859 5.184-3.712 2.218-.896 4.757-1.344 7.616-1.344 1.92 0 3.669.15 5.248.448 1.578.256 3.114.747 4.608 1.472.938.384 1.6.939 1.984 1.664.384.725.533 1.493.448 2.304a4.731 4.731 0 0 1-.832 2.176c-.427.64-1.024 1.088-1.792 1.344-.768.213-1.664.15-2.688-.192-1.408-.555-2.667-.96-3.776-1.216-1.067-.256-2.07-.384-3.008-.384-1.75 0-2.987.235-3.712.704-.726.47-1.088 1.067-1.088 1.792 0 .555.192 1.024.576 1.408.384.341.981.576 1.792.704l7.104 1.216c2.73.427 4.821 1.365 6.272 2.816 1.493 1.408 2.24 3.328 2.24 5.76 0 3.456-1.323 6.144-3.968 8.064-2.646 1.877-6.166 2.816-10.56 2.816Zm39.405 0c-3.2 0-5.845-.49-7.936-1.472-2.048-.981-3.584-2.453-4.608-4.416-1.024-2.005-1.536-4.501-1.536-7.488V66.896h-2.176c-1.365 0-2.432-.363-3.2-1.088-.725-.725-1.088-1.77-1.088-3.136 0-1.365.363-2.39 1.088-3.072.768-.725 1.835-1.088 3.2-1.088h2.176v-3.968c0-1.877.491-3.307 1.472-4.288.982-.981 2.39-1.472 4.224-1.472 1.835 0 3.243.49 4.224 1.472.982.981 1.472 2.41 1.472 4.288v3.968h5.248c1.408 0 2.475.363 3.2 1.088.768.683 1.152 1.707 1.152 3.072s-.384 2.41-1.152 3.136c-.725.725-1.792 1.088-3.2 1.088h-5.248v10.048c0 1.579.363 2.752 1.088 3.52.768.725 1.963 1.088 3.584 1.088.598 0 1.174-.064 1.728-.192a6.87 6.87 0 0 1 1.536-.192c.683-.043 1.238.17 1.664.64.427.427.64 1.43.64 3.008 0 1.28-.192 2.368-.576 3.264-.384.853-1.066 1.472-2.048 1.856-.597.213-1.408.384-2.432.512-1.024.17-1.856.256-2.496.256Zm19.471-13.44c-1.28 0-2.346-.427-3.2-1.28-.853-.853-1.28-1.92-1.28-3.2 0-1.28.427-2.325 1.28-3.136.854-.853 1.92-1.28 3.2-1.28h12.672c1.28 0 2.347.427 3.2 1.28.854.81 1.28 1.856 1.28 3.136s-.426 2.347-1.28 3.2c-.853.853-1.92 1.28-3.2 1.28h-12.672ZM94.969 177.576c-1.493 0-2.773-.363-3.84-1.088-1.024-.768-1.877-1.899-2.56-3.392l-9.152-20.928c-.512-1.28-.683-2.475-.512-3.584.17-1.109.704-1.984 1.6-2.624.939-.683 2.219-1.024 3.84-1.024 1.365 0 2.453.32 3.264.96.853.597 1.621 1.792 2.304 3.584l6.464 16.64h-2.176l6.784-16.704c.683-1.749 1.451-2.923 2.304-3.52.853-.64 2.027-.96 3.52-.96 1.28 0 2.304.341 3.072 1.024.811.64 1.301 1.515 1.472 2.624.171 1.109-.043 2.304-.64 3.584l-9.344 20.992c-.64 1.493-1.493 2.603-2.56 3.328-1.024.725-2.304 1.088-3.84 1.088Zm30.367 0c-1.792 0-3.178-.491-4.16-1.472-.981-.981-1.472-2.411-1.472-4.288v-34.752c0-1.877.491-3.307 1.472-4.288.982-.981 2.368-1.472 4.16-1.472 1.835 0 3.243.491 4.224 1.472 1.024.981 1.536 2.411 1.536 4.288v21.12h.128l7.808-9.472c1.067-1.28 2.048-2.219 2.944-2.816.939-.64 2.198-.96 3.776-.96 1.579 0 2.795.384 3.648 1.152.854.768 1.302 1.728 1.344 2.88.043 1.152-.426 2.304-1.408 3.456l-8.448 9.984v-3.968l9.472 11.904c.939 1.195 1.323 2.368 1.152 3.52-.17 1.109-.725 2.005-1.664 2.688-.896.683-2.048 1.024-3.456 1.024-1.706 0-3.072-.299-4.096-.896-1.024-.64-2.048-1.621-3.072-2.944l-8-9.856h-.128v7.936c0 3.84-1.92 5.76-5.76 5.76Z" fill="#000"/></g><defs><filter id="a" x=".111" y=".111" width="218.778" height="217.777" filterUnits="userSpaceOnUse" color-interpolation-filters="sRGB"><feFlood flood-opacity="0" result="BackgroundImageFix"/><feColorMatrix in="SourceAlpha" values="0 0 0 0 0 0 0 0 0 0 0 0 0 0 0 0 0 0 127 0" result="hardAlpha"/><feOffset dy="4"/><feGaussianBlur stdDeviation="2"/><feComposite in2="hardAlpha" operator="out"/><feColorMatrix values="0 0 0 0 0 0 0 0 0 0 0 0 0 0 0 0 0 0 0.25 0"/><feBlend in2="BackgroundImageFix" result="effect1_dropShadow_203_3322"/><feBlend in="SourceGraphic" in2="effect1_dropShadow_203_3322" result="shape"/></filter><filter id="b" x="28.516" y="48.784" width="171.042" height="136.792" filterUnits="userSpaceOnUse" color-interpolation-filters="sRGB"><feFlood flood-opacity="0" result="BackgroundImageFix"/><feColorMatrix in="SourceAlpha" values="0 0 0 0 0 0 0 0 0 0 0 0 0 0 0 0 0 0 127 0" result="hardAlpha"/><feOffset dy="4"/><feGaussianBlur stdDeviation="2"/><feComposite in2="hardAlpha" operator="out"/><feColorMatrix values="0 0 0 0 0 0 0 0 0 0 0 0 0 0 0 0 0 0 0.25 0"/><feBlend in2="BackgroundImageFix" result="effect1_dropShadow_203_3322"/><feBlend in="SourceGraphic" in2="effect1_dropShadow_203_3322" result="shape"/></filter></defs></svg>
